PathFileType	4	(X/Y/Z)	c:/Users/goper/Files/vsCode/490R/osim_files/C11/C11_SSWS_06.trc
DataRate	CameraRate	NumFrames	NumMarkers	Units                	OrigDataRate	OrigDataStartFrame	OrigNumFrames
120.00	120.00	5	36	mm	120.0	642	1282
                Frame#	Time	LPSI			LASI			LTH1			LTH2			LTH3			LTH4			LLFE			LMFE			LSH1			LSH2			LSH3			LSH4			LLMA			LMMA			LCAL			LMTP			LTOE			LMTP			RPSI			RASI			RTH1			RTH2			RTH3			RTH4			RLFE			RMFE			RSH1			RSH2			RSH3			RSH4			RLMA			RMMA			RCAL			RMTP			RTOE			RMTP		
		X1	Y1	Z1	X2	Y2	Z2	X3	Y3	Z3	X4	Y4	Z4	X5	Y5	Z5	X6	Y6	Z6	X7	Y7	Z7	X8	Y8	Z8	X9	Y9	Z9	X10	Y10	Z10	X11	Y11	Z11	X12	Y12	Z12	X13	Y13	Z13	X14	Y14	Z14	X15	Y15	Z15	X16	Y16	Z16	X17	Y17	Z17	X18	Y18	Z18	X19	Y19	Z19	X20	Y20	Z20	X21	Y21	Z21	X22	Y22	Z22	X23	Y23	Z23	X24	Y24	Z24	X25	Y25	Z25	X26	Y26	Z26	X27	Y27	Z27	X28	Y28	Z28	X29	Y29	Z29	X30	Y30	Z30	X31	Y31	Z31	X32	Y32	Z32	X33	Y33	Z33	X34	Y34	Z34	X35	Y35	Z35	X36	Y36	Z36

642	5.34167	-371.07022	997.72070	200.52155	-545.87860	1007.69788	273.70203	-645.83447	645.86865	335.08664	-660.97192	602.17609	327.72015	-592.46320	624.49390	316.95264	-615.46460	582.07629	314.14624	-649.29474	537.24475	317.92157	-672.71313	548.36609	210.53673	-563.35925	489.90225	319.78632	-535.05499	455.80771	321.43405	-607.22668	449.31335	334.43304	-573.36444	419.54736	332.80338	-374.09766	241.97124	281.89020	-415.05719	226.69635	192.33200	-312.80527	247.43816	219.04535	-416.84381	128.82695	322.85980	-491.54395	95.92746	266.65909	-455.24139	102.64684	217.21390	-376.95276	1014.93115	115.64983	-542.60736	1000.98303	39.28002	-503.70776	631.60004	6.76687	-512.63263	589.52625	14.84634	-565.56097	639.17780	18.73555	-563.98492	597.08490	22.98022	-540.12579	510.71915	34.66061	-511.08786	493.85184	144.14703	-472.68546	403.06833	15.35750	-474.14847	357.38910	18.76864	-534.21796	398.14069	26.45786	-525.92334	350.90176	27.69881	-468.47418	96.57352	72.17433	-491.82144	107.09551	168.04024	-404.10120	60.55278	124.72050	-620.75439	50.62320	153.45010	-625.86621	64.02106	103.34560	-586.33081	41.01720	40.53479
643	5.35000	-379.72073	998.53265	200.59396	-554.67322	1008.73627	273.02524	-659.11499	649.70697	335.42050	-674.80042	606.15448	328.17349	-605.78027	627.91656	319.06396	-628.42169	586.07367	315.50974	-663.65112	540.38623	318.03601	-688.11145	549.92365	210.42308	-578.96826	489.35580	320.87732	-552.05151	454.16205	322.40219	-624.41577	450.45770	334.99283	-591.83942	419.38464	333.37128	-399.86743	233.73759	282.46442	-440.96417	220.56024	192.67575	-337.84644	236.59337	220.10176	-448.11761	122.63691	323.14963	-523.59271	93.35117	266.70572	-486.85785	98.37405	217.31303	-385.42093	1015.65308	115.70539	-550.77332	1001.29437	38.56858	-506.73831	632.40509	6.41344	-515.30621	589.95532	14.17227	-568.96490	638.81726	17.87403	-566.89972	596.77783	22.03399	-541.71869	510.50201	33.68878	-513.36603	493.74857	143.53532	-473.73999	403.24890	14.83859	-475.02686	357.39392	18.18724	-535.07501	397.69049	25.77861	-526.87268	350.85593	26.73830	-468.42395	96.56672	72.15884	-491.81674	107.06434	168.00763	-403.82214	60.82468	124.60184	-620.69623	50.56137	153.39691	-625.80341	63.93314	103.27489	-586.30920	40.95235	40.46301
644	5.35833	-388.37357	999.10516	200.63480	-563.53204	1009.56360	272.49826	-671.87323	653.23041	335.72061	-688.16467	609.74994	328.47455	-618.75299	630.38275	320.07687	-642.93683	588.28064	316.69168	-677.50629	543.20502	318.38425	-702.96161	551.30420	210.37909	-594.00476	488.85437	322.47571	-569.21570	451.96976	323.30200	-641.48022	451.16623	335.53757	-610.18298	418.80890	333.92523	-426.17047	225.15495	283.00690	-467.41718	213.94733	193.23199	-364.46021	224.38731	220.05515	-479.78845	116.56939	323.58963	-556.38300	90.81958	266.68265	-518.78186	93.77014	217.51985	-393.76044	1016.25464	115.77917	-558.99359	1001.53485	37.90454	-510.41196	632.60602	5.80290	-518.28986	590.32782	13.54907	-572.49512	638.44110	17.02633	-569.72375	596.43646	21.06402	-543.66089	510.20981	32.85603	-515.24915	493.79538	143.00957	-474.91617	403.27063	14.10720	-475.94354	357.48007	17.57053	-536.23724	397.34488	25.07448	-527.94519	350.73053	26.07758	-468.44519	96.51015	72.11926	-491.78885	107.06202	167.97337	-404.52939	60.41032	124.86288	-620.69659	50.58909	153.31236	-625.81299	63.91756	103.20411	-586.28650	40.93460	40.39499
645	5.36667	-396.97729	999.49713	200.81453	-572.05200	1010.21204	271.84167	-684.32538	656.25787	336.07959	-700.96448	613.04987	328.89456	-631.32605	632.63776	321.03043	-655.90125	590.91492	317.89667	-690.99573	545.61963	318.87894	-717.23212	552.49536	210.40671	-609.09808	487.25827	323.81082	-585.42596	448.35730	326.16235	-658.26715	451.46585	336.17242	-628.23761	418.14618	335.58472	-452.72733	216.36707	283.63031	-493.57913	207.12639	194.04410	-390.95929	212.53378	220.86694	-511.88260	110.49722	324.27603	-589.51740	88.56937	267.12860	-550.54498	88.87084	218.55168	-402.30133	1016.62494	115.84422	-567.18225	1001.55945	37.39028	-513.64838	633.37280	5.51784	-521.31592	590.62793	12.99952	-576.19971	638.04596	16.29367	-573.01648	596.12531	20.23408	-545.66632	509.92300	32.08133	-517.59497	493.68451	142.39940	-476.39877	403.20197	13.43393	-477.26312	357.49762	16.88052	-538.02502	397.54721	24.19433	-529.10126	350.36060	25.52174	-468.42328	96.49582	72.12316	-492.45853	107.23540	167.79924	-404.49240	60.48410	124.87405	-620.69519	50.61876	153.26941	-625.30823	63.44948	103.29106	-586.28314	40.92146	40.34286
646	5.37500	-405.61142	999.70264	201.03471	-581.18927	1010.60529	271.39386	-696.04388	658.98535	336.53958	-713.29077	615.66870	329.22043	-642.98108	633.94427	322.93951	-668.34973	593.06464	319.06897	-704.06708	547.44208	319.39972	-730.89124	553.48456	210.50784	-623.96210	485.18893	325.26385	-601.90814	445.49246	327.44183	-674.91089	451.45355	336.79263	-646.33905	416.84476	336.20300	-480.15976	207.33678	284.47015	-521.45868	199.50446	194.45834	-417.91711	200.58562	221.94591	-544.33258	104.57778	325.11008	-622.93683	86.47044	267.87448	-583.80969	84.77774	219.35027	-410.91898	1016.83197	115.95058	-575.50037	1001.43915	36.76475	-517.47864	633.75476	5.08526	-524.58173	590.94556	12.42338	-580.07758	637.62012	15.71845	-576.38025	595.73846	19.57748	-547.84589	509.58762	31.27133	-520.07574	493.52048	141.83479	-478.05154	403.22873	12.70921	-478.55804	357.42404	16.29378	-540.21490	396.99927	24.14988	-530.47113	350.09518	24.89088	-468.43076	96.47630	72.12894	-491.94531	107.08928	167.96634	-404.50900	60.52254	124.87749	-620.19568	50.16547	153.35588	-625.31860	63.38572	103.25262	-586.32025	40.89974	40.30430
